<?xml version="1.0" encoding="utf-8"?>
<!-- Generator: Adobe Illustrator 25.0.0, SVG Export Plug-In . SVG Version: 6.00 Build 0)  -->
<svg version="1.1" id="_x33_0" xmlns="http://www.w3.org/2000/svg" xmlns:xlink="http://www.w3.org/1999/xlink" x="0px" y="0px"
	 viewBox="0 0 512 512" style="enable-background:new 0 0 512 512;" xml:space="preserve">
<style type="text/css">
	.st0{fill:#B4DD7F;}
	.st1{fill:#E6E9ED;}
	.st2{fill:#F0D0B4;}
	.st3{fill:#FCD770;}
	.st4{fill:#FF826E;}
	.st5{fill:#AAB2BD;}
	.st6{fill:none;stroke:#E6E9ED;stroke-width:15;stroke-miterlimit:10;}
	.st7{fill:none;stroke:#B4DD7F;stroke-width:15;stroke-miterlimit:10;}
</style>
<g>
	<g>
		<path class="st0" d="M304,64v16h-32V64c0-8.8-7.2-16-16-16s-16,7.2-16,16v16h-32V64c0-26.5,21.5-48,48-48S304,37.5,304,64z"/>
	</g>
	<g>
		<path class="st1" d="M424,496H88c-4.4,0-8-3.6-8-8V88c0-4.4,3.6-8,8-8h344v408C432,492.4,428.4,496,424,496z"/>
	</g>
	<g>
		<path class="st2" d="M112,112h288v352H112V112z"/>
	</g>
	<g>
		<path class="st3" d="M368,348v68h-80v-80h80V348z"/>
	</g>
	<g>
		<circle class="st1" cx="336" cy="256" r="16"/>
	</g>
	<g>
		<path class="st4" d="M233.4,256c-3.5,7.9-8.6,15.2-14.8,21.4L128,368l-16-16l-32-32l-42.6-42.6C23.7,263.7,16,245.1,16,225.7v-0.2
			c0-16.5,5.6-32.5,15.9-45.3c5-6.4,11.4-11.4,18.6-14.9c7.2-3.4,15-5.3,23.2-5.3c2.1,0,4.2,0.2,6.2,0.4c12,1.4,23.1,6.7,31.7,15.3
			l0.3,0.3l16,16l16.3-16.3c10-10,23.7-15.7,37.9-15.7c8.2,0,16,1.8,23.2,5.3c7.2,3.5,13.6,8.5,18.6,14.9
			C234.4,193,240,209,240,225.4v0.2C240,236.2,237.8,246.6,233.4,256L233.4,256z"/>
	</g>
	<g>
		<path class="st5" d="M496,40v60.5c0,43.8-25.4,83-64,101.4c-5.1,2.4-10.5,4.5-16,6.2c-5.5-1.7-10.9-3.8-16-6.2
			c-35.3-16.7-59.4-50.8-63.4-89.9c-0.5-3.8-0.6-7.6-0.6-11.4V80V40c13.1,0,26.1-1.8,38.6-5.3c12.5-3.4,24.5-8.6,35.8-15.3L416,16
			l5.7,3.4C444.2,32.9,469.8,40,496,40z"/>
	</g>
	<g>
		<path class="st3" d="M464,104v16c0,4.4-3.6,8-8,8h-24v24c0,4.4-3.6,8-8,8h-16c-4.4,0-8-3.6-8-8v-24h-24c-4.4,0-8-3.6-8-8v-16
			c0-4.4,3.6-8,8-8h24V72c0-4.4,3.6-8,8-8h16c4.4,0,8,3.6,8,8v24h24C460.4,96,464,99.6,464,104z"/>
	</g>
	<path d="M248,408h16v16h-16V408z"/>
	<path d="M216,408h16v16h-16V408z"/>
	<path d="M184,408h16v16h-16V408z"/>
	<path d="M264,200h48v16h-48V200z"/>
	<path d="M264,168h48v16h-48V168z"/>
	<path d="M264,136h48v16h-48V136z"/>
	<polyline class="st6" points="71.5,271.7 94.9,271.7 110.8,231.9 134.2,300.7 159.1,256.3 335.5,255.6 	"/>
	<polyline class="st7" points="304,371.6 326.1,393.7 389.6,330.1 	"/>
</g>
</svg>
